<svg width="160" height="160" viewBox="0 0 160 160" fill="none" xmlns="http://www.w3.org/2000/svg"><g id="mdi:table-cog" clip-path="url(#clip0_314_584)"><path id="Vector" d="M28.421 20h93.334a13.335 13.335 0 0113.333 13.333v47.2a40.066 40.066 0 00-28.8 6.134H81.755v26.666h7.2c-.734 4.534-.734 9 0 13.334H28.42a13.332 13.332 0 01-13.333-13.334v-80C15.088 26 21.088 20 28.42 20zm0 26.667v26.666h40V46.667h-40zm53.334 0v26.666h40V46.667h-40zm-53.334 40v26.666h40V86.667h-40zM160.288 128.8l-7.133-5.467c.133-1.133.266-2.2.266-3.333s-.066-2.2-.266-3.333l7.066-5.467a1.732 1.732 0 00.4-2.133l-6.666-11.534c-.4-.866-1.267-.866-2.2-.866L143.621 100c-1.866-1.2-3.6-2.333-5.666-3.133l-1.267-8.8c-.067-.8-.8-1.4-1.6-1.4h-13.333c-.8 0-1.534.6-1.667 1.4l-1.267 8.8c-2 .866-3.933 1.933-5.666 3.133l-8.267-3.333c-.733 0-1.6 0-2.067.866l-6.666 11.534c-.4.733-.267 1.6.4 2.133l7.066 5.467a27.942 27.942 0 000 6.666l-7.066 5.467a1.732 1.732 0 00-.4 2.133l6.666 11.534c.4.866 1.267.866 2.067.866l8.267-3.333c1.733 1.2 3.6 2.333 5.666 3.133l1.267 8.8c.133.8.8 1.4 1.667 1.4h13.333c.8 0 1.533-.6 1.667-1.4l1.266-8.8c2-.866 3.734-1.933 5.6-3.133l8.134 3.333c.933 0 1.8 0 2.266-.866l6.667-11.534a1.732 1.732 0 00-.4-2.133zm-31.867 1.2c-5.533 0-10-4.467-10-10s4.534-10 10-10c5.467 0 10 4.467 10 10s-4.4 10-10 10z" fill="#13023E"/></g><defs><clipPath id="clip0_314_584"><path fill="#fff" d="M0 0h160v160H0z"/></clipPath></defs></svg>