<svg width="161" height="160" viewBox="0 0 161 160" fill="none" xmlns="http://www.w3.org/2000/svg"><g id="bi:clipboard-data"><g id="Group" fill="#13023E"><path id="Vector" d="M40.404 97.632a9.023 9.023 0 0118.046 0v9.023a9.023 9.023 0 01-18.046 0v-9.023zM94.542 61.54a9.023 9.023 0 0118.046 0v45.115a9.023 9.023 0 01-18.046 0V61.54zM67.473 79.586a9.023 9.023 0 1118.046 0v27.069a9.022 9.022 0 11-18.046 0v-27.07z"/><path id="Vector_2" d="M41.143 20v-1H30.429c-5.4 0-10.59 2.025-14.425 5.646C12.167 28.269 10 33.196 10 38.345v96.31c0 5.15 2.167 10.076 6.004 13.699 3.835 3.621 9.024 5.646 14.425 5.646h97.142c5.4 0 10.59-2.025 14.425-5.646 3.837-3.623 6.004-8.549 6.004-13.699v-96.31c0-5.15-2.167-10.076-6.004-13.699-3.835-3.621-9.025-5.646-14.425-5.646h-10.714v11.172h10.714c2.33 0 4.553.875 6.183 2.414 1.628 1.538 2.532 3.61 2.532 5.759v96.31c0 2.149-.904 4.221-2.532 5.759-1.63 1.539-3.853 2.414-6.183 2.414H30.429c-2.33 0-4.552-.875-6.183-2.414-1.628-1.538-2.532-3.61-2.532-5.759v-96.31c0-2.148.904-4.221 2.532-5.759 1.63-1.54 3.854-2.414 6.183-2.414h10.714V20z" stroke="#13023E" stroke-width="2"/><path id="Vector_3" d="M89.983 14.335c1.024 0 2.007.4 2.731 1.113a3.768 3.768 0 011.131 2.686v7.599a3.768 3.768 0 01-1.13 2.686 3.895 3.895 0 01-2.732 1.113H66.808c-1.024 0-2.007-.4-2.731-1.113a3.768 3.768 0 01-1.131-2.686v-7.599c0-1.007.407-1.974 1.13-2.686a3.895 3.895 0 012.732-1.113h23.175zM66.808 6.737c-3.073 0-6.02 1.2-8.193 3.338a11.303 11.303 0 00-3.394 8.06v7.598c0 3.022 1.22 5.921 3.394 8.059a11.686 11.686 0 008.193 3.338h23.175c3.073 0 6.02-1.2 8.194-3.338a11.301 11.301 0 003.393-8.06v-7.598c0-3.023-1.22-5.921-3.393-8.059a11.686 11.686 0 00-8.194-3.338H66.808z"/></g></g></svg>