<svg width="160" height="160" viewBox="0 0 160 160" fill="none" xmlns="http://www.w3.org/2000/svg"><g id="ion:documents" fill="#13023E"><path id="Vector" d="M93.749 77c.246 0 .487-.069.692-.198a1.2 1.2 0 00.461-.528c.096-.215.122-.453.076-.682a1.167 1.167 0 00-.335-.608L70.14 51.354a1.271 1.271 0 00-.64-.33 1.314 1.314 0 00-.725.065 1.23 1.23 0 00-.564.437 1.142 1.142 0 00-.212.66v21.257c0 .943.395 1.848 1.098 2.515A3.857 3.857 0 0071.75 77h22z"/><path id="Vector_2" d="M62.88 83.369a13.285 13.285 0 01-2.892-4.318 13.388 13.388 0 01-1.023-5.109V45.968H37.276a19.244 19.244 0 00-13.614 5.717A19.612 19.612 0 0018 65.429v68.111a19.553 19.553 0 005.646 13.76 19.184 19.184 0 0013.631 5.7h43.375a19.18 19.18 0 0013.63-5.7 19.553 19.553 0 005.647-13.76V87.322H72.218a13.03 13.03 0 01-5.061-1.032 13.13 13.13 0 01-4.277-2.921zm52.712-44.698h21.202a1.213 1.213 0 001.185-1.444 1.225 1.225 0 00-.323-.624l-23.615-24.24a1.204 1.204 0 00-1.316-.272 1.21 1.21 0 00-.748 1.126v21.805c0 .968.381 1.896 1.059 2.58a3.597 3.597 0 002.556 1.069z"/><path id="Vector_3" d="M116.16 48.083a13.43 13.43 0 01-9.386-3.922 13.38 13.38 0 01-3.93-9.37V7H70.159a18.197 18.197 0 00-12.834 5.315A18.13 18.13 0 0052 25.125V36h12.747a12.37 12.37 0 018.74 3.667l33.037 33.531a12.403 12.403 0 013.58 8.761V123h16.055c9.839 0 17.841-8.132 17.841-18.125V48.083h-27.84z"/></g></svg>