<svg width="161" height="160" viewBox="0 0 161 160" fill="none" xmlns="http://www.w3.org/2000/svg"><g id="ion:documents" clip-path="url(#clip0_314_595)"><path id="Vector" d="M110.152 8l-38.54 23.793 3.906 2.057 34.289-21.168 58.159 31.684-33.359 20.594 1.625.856v2.61l26.129-16.131 5.484 2.988-31.614 19.516v4.469l25.618-15.816 5.996 3.267-31.614 19.516v4.47l25.618-15.816 5.996 3.267-31.614 19.516v4.469l39.649-24.478-9.841-5.36 9.841-6.075-9.841-5.362 9.84-6.075-9.329-5.083 9.45-5.834L110.152 8zm12.314 17.055c-8.339 4.024-19.446 4.705-27.266 1.671l-15.287 9.438 50.299 26.482 14.499-8.95c-5.711-4.337-5.236-10.808 1.166-15.886l-23.412-12.755h.001zM70.706 39.14L42.688 56.71l53.75 29.76.527-.325c.99-.613 2.39-1.483 4.059-2.52a19173.296 19173.296 0 0024.808-15.461L70.706 39.14zm45.766.446h.001c1.267.007 2.429.268 3.297.741.506.275.897.614 1.153.999.256.384.372.805.34 1.24-.032.435-.211.874-.526 1.294-.316.419-.761.81-1.311 1.149a7.939 7.939 0 01-1.897.83 9.844 9.844 0 01-2.193.386 8.981 8.981 0 01-2.155-.12 6.066 6.066 0 01-1.791-.604c-1.019-.556-1.556-1.361-1.491-2.239.064-.878.725-1.757 1.836-2.442a8.118 8.118 0 012.205-.917 9.901 9.901 0 012.532-.317zm-86.573 17.96l-41.778 25.79 9.329 5.083-9.45 5.835 9.84 5.36-9.84 6.076 9.84 5.361-9.84 6.076L53.848 153l39.756-24.544v-4.468l-39.41 24.33-58.16-31.685 5.65-3.488 52.164 28.418 39.756-24.544v-4.467l-39.41 24.33-58.16-31.685 5.65-3.488 52.164 28.418 39.756-24.544v-4.468l-39.41 24.331-58.16-31.685 5.26-3.248L53.97 119.21l39.634-24.469v-1.925l-2.172-1.202-37.118 22.914-58.157-31.684 37.558-23.187-3.817-2.113v.001zm8.109 4.49l-18.597 11.48c5.712 4.337 5.236 10.807-1.166 15.886l23.412 12.755c8.338-4.024 19.444-4.705 27.264-1.671l18.218-11.247-49.132-27.203h.001zm91.089 12.272c-3.188 1.989-6 3.744-12.035 7.505-4.053 2.527-8.108 5.053-12.164 7.576a2212.66 2212.66 0 01-4.073 2.528c-.036.023-.051.03-.086.052v32.755l28.358-18.331V74.307zM49.434 80.97c1.268.008 2.43.27 3.297.743 1.02.555 1.557 1.36 1.492 2.238-.065.878-.725 1.757-1.836 2.443-1.112.686-2.582 1.123-4.089 1.215-1.507.092-2.926-.168-3.946-.723-1.02-.556-1.556-1.361-1.491-2.24.065-.877.725-1.756 1.836-2.442a8.12 8.12 0 012.205-.916 9.902 9.902 0 012.532-.317z" fill="#13023E"/></g><defs><clipPath id="clip0_314_595"><path fill="#fff" transform="translate(.5)" d="M0 0h160v160H0z"/></clipPath></defs></svg>