<svg width="44" height="44" viewBox="0 0 44 44" fill="none" xmlns="http://www.w3.org/2000/svg"><g id="solar:box-bold"><path id="Vector" d="M32.226 8.125L28.56 6.2C25.34 4.512 23.73 3.667 22 3.667c-1.73 0-3.34.843-6.56 2.533l-.588.31 16.359 9.348 7.362-3.685c-1.184-1.342-3.094-2.345-6.347-4.051v.003zm7.645 6.476l-7.33 3.666v5.566a1.375 1.375 0 01-2.75 0v-4.192l-6.416 3.208v17.308c1.316-.328 2.814-1.112 5.185-2.357l3.666-1.925c3.944-2.07 5.916-3.104 7.013-4.965 1.094-1.859 1.094-4.175 1.094-8.8v-.215c0-3.47 0-5.64-.462-7.294zM20.625 40.157V22.851L4.129 14.6c-.462 1.653-.462 3.824-.462 7.29v.215c0 4.63 0 6.945 1.094 8.804 1.097 1.86 3.07 2.897 7.013 4.966L15.44 37.8c2.37 1.245 3.869 2.03 5.185 2.357zM5.427 12.175L22 20.462l6.253-3.126-16.29-9.31-.19.1c-3.25 1.704-5.162 2.707-6.346 4.051v-.002z" fill="#13023E"/></g></svg>