<svg width="44" height="44" viewBox="0 0 44 44" fill="none" xmlns="http://www.w3.org/2000/svg"><g id="openmoji:pot-of-food"><path id="Vector" d="M4.278 22c0 9.788 7.934 17.722 17.722 17.722S39.722 31.788 39.722 22H4.278z" fill="#13023E"/><path id="Vector_2" d="M29.944 22c0 9.788-2.444 17.722-7.944 17.722 9.788 0 17.722-7.934 17.722-17.722h-9.778z" fill="#130536"/><path id="Vector_3" d="M4.278 15.364l4.278 4.278m9.193-14.847c.058.71.365 1.378.867 1.884a3.056 3.056 0 010 4.321 3.055 3.055 0 000 4.32 3.056 3.056 0 010 4.321M21.126 4.3A3.034 3.034 0 0022 6.68 3.056 3.056 0 0122 11a3.056 3.056 0 000 4.32 3.056 3.056 0 010 4.321m2.45-15.19a3.035 3.035 0 00.89 2.228 3.056 3.056 0 010 4.321 3.056 3.056 0 000 4.32 3.056 3.056 0 010 4.321M4.277 22c0 9.788 7.934 17.722 17.722 17.722S39.722 31.788 39.722 22H4.278z" stroke="#13023E" stroke-width="2" stroke-miterlimit="10" stroke-linecap="round" stroke-linejoin="round"/></g></svg>