<svg width="44" height="44" viewBox="0 0 44 44" fill="none" xmlns="http://www.w3.org/2000/svg"><g id="healthicons:cleaning"><g id="Group" fill="#13023E"><path id="Vector" d="M25.819 24.945l-5.881 3.127-.124-.233h0a.834.834 0 01.345-1.127s0 0 0 0l4.409-2.344h0a.833.833 0 011.127.345h0l.124.232zm.976 14.314v-.001l.754-.401 8.01-4.258.986-.525-.63-.922-6.267-9.17-.567-1.069a4.665 4.665 0 00-6.312-1.93h0l-.512.272-9.37-17.62h0a1.916 1.916 0 10-3.384 1.8l9.368 17.62-.511.272s0 0 0 0a4.666 4.666 0 00-1.93 6.312l.567 1.067 4.1 10.324.412 1.038.987-.524 3.434-1.825.865-.46z" stroke="#13023E" stroke-width="2"/><path id="Vector_2" d="M11.287 32.413a.917.917 0 00-1.29-.118h.002l-.01.008-.058.044a5.396 5.396 0 01-.251.178 8.06 8.06 0 01-1.003.564 8.388 8.388 0 01-3.594.828.917.917 0 000 1.833 10.22 10.22 0 004.382-1.005 9.923 9.923 0 001.232-.695 7.24 7.24 0 00.43-.312l.028-.021.01-.007.002-.004h.002l.001-.002a.916.916 0 00.117-1.29zm1.892 4.662a.915.915 0 01-.254 1.271l-.001.002-.004.002-.01.005-.028.019a14.615 14.615 0 01-1.812.964c-1.082.481-2.594.995-4.153.995a.917.917 0 110-1.833c1.19 0 2.429-.402 3.409-.838a13.094 13.094 0 001.562-.828l.018-.011.002-.002a.918.918 0 011.271.254z"/></g></g></svg>