<svg width="44" height="44" viewBox="0 0 44 44" fill="none" xmlns="http://www.w3.org/2000/svg"><g id="material-symbols:other-admission"><path id="Vector" d="M27.958 34.375c.367 0 .688-.138.963-.413a1.32 1.32 0 00.412-.962 1.32 1.32 0 00-.412-.962 1.32 1.32 0 00-.963-.413 1.32 1.32 0 00-.962.413 1.32 1.32 0 00-.413.962c0 .367.138.688.413.962.275.275.596.413.962.413zm5.042 0c.367 0 .688-.138.962-.413a1.32 1.32 0 00.413-.962 1.32 1.32 0 00-.413-.962 1.32 1.32 0 00-.962-.413 1.32 1.32 0 00-.962.413 1.32 1.32 0 00-.413.962c0 .367.137.688.413.962.275.275.595.413.962.413zm5.042 0c.366 0 .687-.138.962-.413a1.32 1.32 0 00.413-.962 1.32 1.32 0 00-.413-.962 1.32 1.32 0 00-.962-.413 1.32 1.32 0 00-.963.413 1.32 1.32 0 00-.412.962c0 .367.137.688.412.962.275.275.596.413.963.413zM33 42.167c-2.536 0-4.698-.894-6.486-2.683-1.788-1.788-2.682-3.95-2.68-6.484 0-2.536.893-4.698 2.681-6.486 1.789-1.788 3.95-2.682 6.485-2.68 2.536 0 4.698.893 6.486 2.681 1.788 1.789 2.682 3.95 2.68 6.485 0 2.536-.893 4.698-2.681 6.486-1.789 1.788-3.95 2.682-6.485 2.68zM12.833 16.5h18.334v-3.667H12.833V16.5zm8.571 22H9.167c-1.009 0-1.872-.36-2.59-1.078-.72-.719-1.078-1.582-1.077-2.589V9.167c0-1.009.36-1.872 1.078-2.59.719-.72 1.582-1.078 2.589-1.077h25.666c1.009 0 1.872.36 2.59 1.078.72.719 1.078 1.582 1.077 2.589V21.45a13.131 13.131 0 00-2.682-.962A12.172 12.172 0 0033 20.166c-.336 0-.65.007-.94.022a5.92 5.92 0 00-.893.115v-.137H12.833v3.666h11.23c-.55.52-1.047 1.085-1.491 1.696a12.49 12.49 0 00-1.168 1.971h-8.57v3.667h7.47c-.06.305-.1.603-.115.894-.016.291-.024.604-.022.939 0 1.008.091 1.948.275 2.82.183.871.504 1.765.962 2.68z" fill="#13023E"/></g></svg>