<svg width="44" height="44" viewBox="0 0 44 44" fill="none" xmlns="http://www.w3.org/2000/svg"><g id="emojione-monotone:building-construction"><path id="Vector" d="M39.875 5.5h-2.75V3.3c0-1.059-.796-1.925-1.767-1.925h-8.844c-.968 0-1.764.866-1.764 1.926V5.5H8.21l-4.085 8.25h2.836v5.5H6.5L4.212 22l2.29 2.75h.503v1.477c0 .373.288.675.644.675 1.067 0 1.934.91 1.934 2.029 0 1.118-.867 2.028-1.934 2.028-1.066 0-1.933-.91-1.933-2.028 0-.374-.29-.675-.645-.675-.357 0-.645.301-.645.675.001 1.866 1.446 3.381 3.223 3.381s3.223-1.515 3.223-3.38c0-1.633-1.109-3-2.578-3.313v-.869h.502l2.29-2.75-2.29-2.75h-.46v-5.5H24.75v4.95c0 .912.592 1.678 1.375 1.874v22.051h1.805V38.5l6.015 2.063-6.015 2.062h7.82V20.573c.784-.195 1.375-.96 1.375-1.874V13.75h2.75v-2.063h-1.429l1.429-2.712V5.5zM7.317 11.688l1.606-3.3 1.737 3.3H7.317zm3.04-4.126h2.855l-1.427 2.713-1.428-2.713zm2.554 4.125l1.428-2.712 1.428 2.713h-2.856zm2.554-4.124h2.855l-1.428 2.712-1.427-2.713zm2.554 4.125l1.427-2.713 1.427 2.713H18.02zm2.553-4.126h2.855L22 10.276l-1.428-2.713zm4.178 4.125h-1.625l1.428-2.712.197.375v2.338zM33.945 38.5l-6.015-2.063 6.015-2.062V38.5zm-6.015-4.125V30.25l6.015 2.064-6.015 2.061zm6.015-4.125l-6.015-2.063 6.015-2.062v4.125zm-6.015-4.125v-4.124l6.015 2.061-6.015 2.063zm6.015-4.124l-4.011-1.376h4.011v1.376zm1.032-11.518c0 .662-.465 1.204-1.032 1.204h-6.189c-.566 0-1.03-.542-1.03-1.204V4.646c0-.666.464-1.208 1.03-1.208h6.19c.566 0 1.03.542 1.03 1.208v5.837zm2.344-.208l-.196-.373v-2.34h1.623l-1.427 2.713z" fill="#13023E"/></g></svg>