<svg width="44" height="44" viewBox="0 0 44 44" fill="none" xmlns="http://www.w3.org/2000/svg"><g id="solar:health-bold"><path id="Vector" fill-rule="evenodd" clip-rule="evenodd" d="M16.43 33.86C11.035 29.726 3.667 22.897 3.667 16.44 3.667 5.651 13.75 1.623 22 9.954c8.25-8.33 18.333-4.303 18.333 6.483 0 6.459-7.37 13.288-12.763 17.422-2.442 1.87-3.663 2.807-5.57 2.807-1.907 0-3.128-.935-5.57-2.807zm13.82-22.402a1.375 1.375 0 011.375 1.375v2.292h2.292a1.375 1.375 0 010 2.75h-2.292v2.292a1.375 1.375 0 11-2.75 0v-2.292h-2.292a1.375 1.375 0 010-2.75h2.292v-2.292a1.375 1.375 0 011.375-1.375z" fill="#13023E"/></g></svg>