<svg width="44" height="44" viewBox="0 0 44 44" fill="none" xmlns="http://www.w3.org/2000/svg"><g id="mdi:energy-to-grid"><path id="Vector" d="M20.882 9.992l-3.264-1.65 2.31-4.675h15.529l2.328 4.675-3.263 1.631-1.32-2.64h-11l-1.32 2.659zm18.956 4.675h-8.305l-1.448-5.5h-4.767l-1.485 5.5h-8.25l-2.365 4.675 3.282 1.631 1.338-2.64h19.745l1.302 2.659 3.282-1.632-2.329-4.693zM38.28 40.333h-3.795l-.44-1.65-6.343-9.533-6.362 9.533-.422 1.65h-3.795l5.299-20.166h3.795l-.66 2.475 2.145 3.208 2.126-3.208-.641-2.475H33l5.28 20.166zM26.583 27.5l-1.631-2.475-2.164 8.213 3.795-5.738zm6.032 5.72l-2.163-8.213-1.65 2.493 3.813 5.72zM16.5 29.333L9.167 22v5.5H1.833v3.667h7.334v5.5l7.333-7.334z" fill="#13023E"/></g></svg>