<svg width="44" height="44" viewBox="0 0 44 44" fill="none" xmlns="http://www.w3.org/2000/svg"><g id="mdi:event-clock"><path id="Vector" d="M27.5 23.833h2.75v5.17l4.473 2.585-1.375 2.384-5.848-3.374v-6.765zm7.333-9.166H9.167v20.166h8.561a12.857 12.857 0 01-1.228-5.5A12.833 12.833 0 0129.333 16.5c1.962 0 3.832.44 5.5 1.228v-3.061zM9.167 38.5A3.667 3.667 0 015.5 34.833V9.167A3.654 3.654 0 019.167 5.5H11V1.833h3.667V5.5h14.666V1.833H33V5.5h1.833A3.667 3.667 0 0138.5 9.167V20.35a12.757 12.757 0 013.667 8.983 12.834 12.834 0 01-12.834 12.834A12.757 12.757 0 0120.35 38.5H9.167zm20.166-18.058a8.892 8.892 0 00-8.891 8.891 8.888 8.888 0 0012.294 8.215 8.892 8.892 0 00-3.403-17.106z" fill="#13023E"/></g></svg>