<svg width="44" height="44" viewBox="0 0 44 44" fill="none" xmlns="http://www.w3.org/2000/svg"><g id="healthicons:factory-worker"><g id="Group" fill="#13023E"><path id="Vector" d="M14.042 12.114c.627-1.973 2.21-3.605 4.291-4.498v2.467a.917.917 0 001.834 0V6.417a.917.917 0 01.916-.917h1.834a.916.916 0 01.916.917v3.666a.917.917 0 001.834 0V7.616c2.112.906 3.71 2.57 4.317 4.582-.235.19-.629.422-1.242.645-1.368.5-3.662.907-7.224.907-2.566 0-4.628-.4-6.019-.908-.671-.244-1.153-.503-1.457-.728z"/><path id="Vector_2" fill-rule="evenodd" clip-rule="evenodd" d="M29.37 14.566c.811-.297 1.451-.653 1.906-1.062.52.498.807 1.045.807 1.621 0 1.098-1.048 2.096-2.759 2.835a7.335 7.335 0 01-10.215 7.106 7.334 7.334 0 01-4.433-7.106c-1.71-.739-2.76-1.737-2.76-2.835 0-.596.309-1.161.863-1.672l.104.083c.499.385 1.18.735 1.989 1.029 1.623.593 3.904 1.018 6.646 1.018 3.674 0 6.205-.417 7.852-1.017zm-12.864 4.018a5.5 5.5 0 0010.988 0c-1.58.422-3.468.666-5.494.666s-3.914-.245-5.494-.666zM5.5 38.5h19.25V27.958l-1.833 1.375v3.573c-.3.069-.609.1-.917.094-.435 0-.729-.046-.917-.094v-3.37l-4.26-3.312C11.478 27.251 5.5 29.644 5.5 33v5.5zm6.417-1.833h7.333v-4.419l-5.981.998 1.72-4.729a28.123 28.123 0 00-3.072.981v7.169zm-4.584 0h2.75v-6.345l-.068.036c-.975.517-1.688 1.044-2.137 1.54-.44.488-.545.848-.545 1.102v3.667z"/><path id="Vector_3" d="M29.856 23.512c.53-.54 1.265.005 1.103.745l-.023.108a2.582 2.582 0 105.045 0l-.024-.108c-.161-.74.574-1.284 1.104-.744a5.025 5.025 0 011.439 3.528 5.039 5.039 0 01-2.368 4.275c-.255.16-.382.466-.382.767v4.584a1.833 1.833 0 01-1.833 1.833H33a1.834 1.834 0 01-1.833-1.833v-4.584c0-.301-.127-.607-.383-.767a5.038 5.038 0 01-2.367-4.276c0-1.373.549-2.62 1.439-3.527z"/></g></g></svg>