<svg width="111" height="110" viewBox="0 0 111 110" fill="none" xmlns="http://www.w3.org/2000/svg"><g id="bi:facebook" clip-path="url(#clip0_283_965)"><path id="Vector" d="M110.5 55.337c0-30.566-24.626-55.344-55-55.344C25.113 0 .486 24.771.486 55.343c0 27.618 20.116 50.511 46.407 54.664V71.335H32.935V55.344h13.97V43.14c0-13.867 8.216-21.526 20.777-21.526 6.022 0 12.313 1.08 12.313 1.08v13.612h-6.937c-6.827 0-8.958 4.27-8.958 8.649v10.38h15.248l-2.433 15.992H64.094V110c26.29-4.152 46.406-27.046 46.406-54.663z" fill="#fff"/></g><defs><clipPath id="clip0_283_965"><path fill="#fff" transform="translate(.5)" d="M0 0h110v110H0z"/></clipPath></defs></svg>