<svg width="111" height="110" viewBox="0 0 111 110" fill="none" xmlns="http://www.w3.org/2000/svg"><g id="ri:instagram-fill"><path id="Vector" d="M60.205 9.17c3.345-.013 6.69.021 10.033.101l.89.032c1.026.037 2.039.083 3.263.138 4.876.229 8.204.999 11.123 2.13 3.026 1.165 5.574 2.742 8.122 5.29a22.496 22.496 0 015.285 8.117c1.132 2.92 1.902 6.252 2.131 11.128.055 1.22.101 2.237.138 3.264l.027.889c.081 3.342.117 6.685.105 10.028l.005 3.42v6.004c.011 3.344-.024 6.689-.105 10.032l-.028.89c-.037 1.026-.082 2.04-.137 3.263-.23 4.877-1.009 8.204-2.136 11.124a22.385 22.385 0 01-5.285 8.121 22.526 22.526 0 01-8.121 5.285c-2.92 1.132-6.248 1.902-11.124 2.131-1.224.055-2.237.101-3.264.138l-.889.027c-3.343.082-6.688.117-10.033.106l-3.419.004h-6c-3.344.012-6.689-.024-10.032-.105l-.89-.028a273.338 273.338 0 01-3.263-.137c-4.877-.229-8.204-1.008-11.128-2.136a22.411 22.411 0 01-8.117-5.285 22.477 22.477 0 01-5.29-8.121c-1.132-2.92-1.902-6.247-2.13-11.124a340.557 340.557 0 01-.138-3.263l-.023-.89a362.305 362.305 0 01-.115-10.032v-9.424c-.012-3.343.021-6.686.101-10.028l.032-.89c.037-1.026.083-2.043.138-3.263.229-4.88.999-8.204 2.131-11.128a22.367 22.367 0 015.298-8.112 22.444 22.444 0 018.113-5.294C28.397 10.44 31.72 9.67 36.6 9.44l3.264-.138.889-.023a362.29 362.29 0 0110.028-.114l9.423.004zm-4.711 22.917a22.916 22.916 0 100 45.829 22.917 22.917 0 0016.204-39.122 22.912 22.912 0 00-16.204-6.707zm0 9.166a13.751 13.751 0 11.004 27.496 13.75 13.75 0 110-27.5l-.004.005zm24.062-16.041a5.729 5.729 0 000 11.449 5.73 5.73 0 100-11.458v.009z" fill="#fff"/></g></svg>