<svg width="111" height="110" viewBox="0 0 111 110" fill="none" xmlns="http://www.w3.org/2000/svg"><g id="uil:linkedin"><path id="Vector" d="M94.319 9.165H16.677A6.645 6.645 0 009.94 15.72v78.559a6.645 6.645 0 006.737 6.554H94.32a6.645 6.645 0 006.737-6.554v-78.56a6.647 6.647 0 00-4.187-6.083 6.645 6.645 0 00-2.55-.47zM37.577 85.89h-13.75V44.64h13.75v41.25zm-6.875-47.025a7.15 7.15 0 010-14.3 7.196 7.196 0 110 14.3zM87.17 85.89H73.42V63.753c0-5.546-1.971-9.167-6.967-9.167a7.562 7.562 0 00-7.058 4.996 9.17 9.17 0 00-.459 3.346v22.916h-13.75v-41.25h13.75v5.821a13.75 13.75 0 0112.421-6.875c9.167 0 15.813 5.913 15.813 18.609V85.89z" fill="#fff"/></g></svg>